<svg width="166" height="196" viewBox="0 0 166 196" fill="none" xmlns="http://www.w3.org/2000/svg">
<g clip-path="url(#clip0_525_662)">
<path d="M81.752 94.4199C88.057 94.5052 94.3135 93.3228 100.139 90.9452C105.964 88.5675 111.236 85.0445 115.632 80.5915C120.153 76.2607 123.729 71.0673 126.143 65.3287C128.556 59.59 129.756 53.4268 129.67 47.2157C129.756 41.0046 128.556 34.8414 126.143 29.1027C123.729 23.3641 120.153 18.1707 115.632 13.8399C111.184 9.45599 105.902 5.97841 100.089 3.60578C94.2753 1.23315 88.0444 0.0119629 81.752 0.0119629C75.4595 0.0119629 69.2287 1.23315 63.4154 3.60578C57.6022 5.97841 52.3203 9.45599 47.8716 13.8399C43.3513 18.1707 39.775 23.3641 37.3614 29.1027C34.9478 34.8414 33.7476 41.0046 33.8341 47.2157C33.7461 53.426 34.9445 59.5887 37.3561 65.3273C39.7677 71.0659 43.3418 76.2597 47.86 80.5915C52.2601 85.0427 57.5344 88.5644 63.3613 90.9418C69.1882 93.3193 75.4456 94.5027 81.752 94.4199ZM56.1153 21.9494C59.4815 18.632 63.4781 16.0005 67.877 14.2051C72.2758 12.4098 76.9906 11.4857 81.752 11.4857C86.5134 11.4857 91.2282 12.4098 95.627 14.2051C100.026 16.0005 104.022 18.632 107.389 21.9494C110.831 25.2104 113.551 29.1372 115.38 33.4832C117.208 37.8293 118.104 42.5007 118.013 47.2043C118.104 51.9078 117.208 56.5793 115.38 60.9253C113.551 65.2713 110.831 69.1981 107.389 72.4592C104.022 75.7765 100.026 78.408 95.627 80.2034C91.2282 81.9988 86.5134 82.9229 81.752 82.9229C76.9906 82.9229 72.2758 81.9988 67.877 80.2034C63.4781 78.408 59.4815 75.7765 56.1153 72.4592C52.6727 69.1986 49.9518 65.2718 48.1235 60.9257C46.2952 56.5796 45.3991 51.9079 45.4914 47.2043C45.3998 42.5007 46.2963 37.8293 48.1245 33.4832C49.9527 29.1372 52.6732 25.2104 56.1153 21.9494Z" fill="black"/>
<path d="M165.593 150.717C165.28 146.563 164.742 142.428 163.98 138.33C163.228 134.116 162.197 129.955 160.891 125.874C159.568 121.838 157.825 117.948 155.689 114.265C153.586 110.557 150.946 107.17 147.852 104.211C144.595 101.194 140.774 98.8281 136.601 97.2451C132.017 95.5045 127.14 94.6351 122.227 94.683C119.36 94.987 116.649 96.1214 114.436 97.9429C112.114 99.4412 109.374 101.18 106.309 103.101C103.03 105.045 99.5201 106.581 95.8588 107.677C87.5214 110.403 78.5131 110.403 70.1757 107.677C66.5141 106.582 63.0042 105.045 59.726 103.101C56.7071 101.203 53.9205 99.4641 51.5984 97.9429C49.3847 96.1249 46.6734 94.9944 43.8075 94.6944C38.8987 94.6468 34.0251 95.5163 29.4449 97.2566C25.2679 98.8375 21.4428 101.203 18.1824 104.222C15.0887 107.181 12.4486 110.568 10.3451 114.276C8.21031 117.959 6.46719 121.85 5.14345 125.886C3.8385 129.967 2.80679 134.128 2.05497 138.342C1.29123 142.439 0.752474 146.574 0.441068 150.729C0.174019 154.469 0.0463002 158.369 0.0463002 162.304C-0.159216 166.857 0.607885 171.401 2.29796 175.643C3.98803 179.885 6.56342 183.73 9.85745 186.93C16.7397 193.126 25.83 196.391 35.1458 196.011H130.947C140.263 196.391 149.353 193.126 156.235 186.93C159.53 183.731 162.107 179.886 163.797 175.644C165.487 171.401 166.253 166.857 166.046 162.304C166.035 158.346 165.861 154.446 165.593 150.717ZM148.177 178.603C145.841 180.661 143.116 182.244 140.157 183.261C137.198 184.278 134.064 184.708 130.935 184.528H35.0994C31.9717 184.71 28.8383 184.281 25.8793 183.266C22.9203 182.251 20.1941 180.67 17.8573 178.614C15.7032 176.484 14.0325 173.927 12.9557 171.114C11.8789 168.3 11.4205 165.294 11.6107 162.292C11.6107 158.621 11.7384 154.995 11.9822 151.507C12.2663 147.766 12.7547 144.043 13.4452 140.355C14.1062 136.64 15.0138 132.972 16.1621 129.374C17.2372 126.09 18.6535 122.924 20.3885 119.927C21.9479 117.184 23.9035 114.68 26.1939 112.492C28.3663 110.504 30.9096 108.95 33.6829 107.917C36.6166 106.808 39.7252 106.216 42.867 106.167C43.2734 106.384 44.0281 106.784 45.1892 107.551C47.581 109.095 50.3444 110.845 53.3981 112.766C57.5275 115.234 61.9548 117.183 66.5764 118.565C77.2461 122.035 88.7653 122.035 99.435 118.565C104.059 117.19 108.49 115.249 112.625 112.789C115.748 110.822 118.43 109.118 120.834 107.574C121.995 106.819 122.738 106.43 123.156 106.19C126.298 106.239 129.406 106.831 132.34 107.94C135.113 108.974 137.656 110.528 139.829 112.515C142.12 114.702 144.076 117.207 145.634 119.949C147.37 122.943 148.786 126.105 149.861 129.386C151.01 132.983 151.917 136.651 152.578 140.366C153.267 144.055 153.755 147.778 154.041 151.518C154.285 154.949 154.412 158.609 154.412 162.292C154.596 165.291 154.132 168.295 153.052 171.104C151.971 173.914 150.298 176.466 148.142 178.592L148.177 178.603Z" fill="black"/>
</g>
<defs>
<clipPath id="clip0_525_662">
<rect width="166" height="196" fill="white"/>
</clipPath>
</defs>
</svg>
