<svg xmlns="http://www.w3.org/2000/svg" width="14.297" height="17.136" viewBox="0 0 14.297 17.136"><path d="M91.159,8.255a3.994,3.994,0,0,0,2.918-1.209,3.994,3.994,0,0,0,1.209-2.918,3.994,3.994,0,0,0-1.209-2.918,4.126,4.126,0,0,0-5.836,0,3.994,3.994,0,0,0-1.209,2.918A3.994,3.994,0,0,0,88.24,7.046,4,4,0,0,0,91.159,8.255ZM88.951,1.919a3.122,3.122,0,0,1,4.416,0,2.984,2.984,0,0,1,.915,2.208,2.984,2.984,0,0,1-.915,2.208,3.122,3.122,0,0,1-4.416,0,2.983,2.983,0,0,1-.915-2.208A2.984,2.984,0,0,1,88.951,1.919Zm0,0" transform="translate(-84.118)"/><path d="M14.262,252.216a10.2,10.2,0,0,0-.139-1.083,8.532,8.532,0,0,0-.266-1.089,5.378,5.378,0,0,0-.448-1.015,3.827,3.827,0,0,0-.675-.879,2.976,2.976,0,0,0-.969-.609,3.35,3.35,0,0,0-1.238-.224,1.256,1.256,0,0,0-.671.285c-.2.131-.436.283-.7.451a4,4,0,0,1-.9.4,3.511,3.511,0,0,1-2.212,0,3.993,3.993,0,0,1-.9-.4c-.26-.166-.5-.318-.7-.451a1.255,1.255,0,0,0-.671-.284,3.346,3.346,0,0,0-1.237.224,2.973,2.973,0,0,0-.97.609,3.828,3.828,0,0,0-.675.879,5.388,5.388,0,0,0-.448,1.015,8.551,8.551,0,0,0-.266,1.089,10.125,10.125,0,0,0-.139,1.083c-.023.327-.034.668-.034,1.012a2.846,2.846,0,0,0,.845,2.153,3.042,3.042,0,0,0,2.178.794h8.251a3.042,3.042,0,0,0,2.178-.794,2.844,2.844,0,0,0,.845-2.153C14.3,252.883,14.285,252.542,14.262,252.216Zm-1.5,2.438a2.048,2.048,0,0,1-1.485.518H3.023a2.048,2.048,0,0,1-1.485-.517A1.858,1.858,0,0,1,1,253.228c0-.321.011-.638.032-.943a9.133,9.133,0,0,1,.126-.975,7.542,7.542,0,0,1,.234-.96,4.385,4.385,0,0,1,.364-.826,2.837,2.837,0,0,1,.5-.65,1.974,1.974,0,0,1,.645-.4,2.311,2.311,0,0,1,.791-.153c.035.019.1.054.2.121.206.135.444.288.707.456a4.976,4.976,0,0,0,1.135.507,4.514,4.514,0,0,0,2.83,0A4.982,4.982,0,0,0,9.7,248.9c.269-.172.5-.321.707-.456.1-.066.164-.1.2-.121a2.312,2.312,0,0,1,.791.153,1.977,1.977,0,0,1,.645.4,2.83,2.83,0,0,1,.5.65,4.371,4.371,0,0,1,.364.825,7.525,7.525,0,0,1,.234.96,9.21,9.21,0,0,1,.126.975h0c.021.3.032.62.032.942A1.858,1.858,0,0,1,12.759,254.653Zm0,0" transform="translate(0 -239.039)"/></svg>